<svg width="24" height="23" viewBox="0 0 24 23" fill="none" xmlns="http://www.w3.org/2000/svg">
<path d="M14.6392 11.4656C15.3126 12.1077 15.9247 12.6934 16.5387 13.2764C18.7983 15.4224 21.056 17.5703 23.3209 19.7111C23.8638 20.2244 24.1182 20.8311 23.9447 21.5679C23.6158 22.9666 21.9708 23.472 20.9183 22.4913C19.4913 21.1623 18.0858 19.8097 16.6711 18.4669C15.1619 17.034 13.6526 15.6011 12.1434 14.1683C12.1049 14.1315 12.0625 14.0986 11.9998 14.0447C11.7121 14.3149 11.4276 14.5804 11.145 14.8479C8.48148 17.3758 5.82119 19.9063 3.15438 22.4302C2.34918 23.1927 1.22099 23.1789 0.50649 22.4197C-0.187781 21.6816 -0.171468 20.5544 0.575004 19.8274C1.574 18.854 2.59322 17.9023 3.60461 16.9413C5.45317 15.1851 7.30174 13.4295 9.1503 11.6733C9.20381 11.6227 9.25209 11.5668 9.32322 11.4912C8.56108 10.7662 7.81331 10.0544 7.06488 9.34389C4.91485 7.30371 2.75961 5.26945 0.618722 3.21941C-0.362001 2.28016 -0.12775 0.737539 1.05656 0.178198C1.75409 -0.151096 2.52405 -0.0222703 3.13089 0.550216C4.55728 1.89566 5.97779 3.24898 7.40027 4.59903C8.92518 6.04634 10.4501 7.493 11.9992 8.96333C12.1075 8.86276 12.2093 8.77009 12.3091 8.67544C15.1625 5.96747 18.0121 3.25621 20.87 0.554159C21.95 -0.466588 23.6112 0.0105935 23.9453 1.43556C24.1143 2.15659 23.8781 2.76457 23.3437 3.26936C21.8938 4.63846 20.4498 6.01348 19.0039 7.38653C17.6525 8.66953 16.3031 9.95384 14.9505 11.2355C14.865 11.3164 14.7612 11.3768 14.6392 11.4669V11.4656Z" fill="#C4C4C4"/>
</svg>
